# xmcd
#
# Track frame offsets:
#	150
#	13369
#	29456
#	41797
#	53673
#	70310
#	84593
#	99355
#	112866
#	129356
#	141320
#	155607
#	165949
#	179791
#	196855
#	210615
#	221033
#	234034
#	246776
#	258387
#	270502
#	280542
#	292935
#	308616
#
# Disc length: 4321 seconds
#
# Revision: 0
# Processed by: cddbd v1.5.2PL0 Copyright (c) Steve Scherf et al.
# Submitted via: dBpowerAMP V4.0
#
DISCID=4f10df18
DTITLE=Diversos - Seleção Gauchesca 3
DYEAR=1900
DGENRE=Country
TTITLE0=Era tum,tum,tum - Os Monarcas
TTITLE1=Fandango da esperança - Gaúcho da Fronteira
TTITLE2=Xote gostoso - Os Maragatos
TTITLE3=Vanerão largado - Grupo MInuano
TTITLE4=Morenaça - Os Garotos de Ouro
TTITLE5=Paixão Ingranta - Gaúcho da Fronteira
TTITLE6=Barbaridade Tchê - Os Garotos de Ouro
TTITLE7=Capão de mato - Os Serranos
TTITLE8=Xote do caminhoneiro - Os Filhos do Rio Grande
TTITLE9=Vaneirinha da esperança - Os Mirins
TTITLE10=A dança do xote - Os Serranos
TTITLE11=No repicar da vanera - Os Monarcas
TTITLE12=Ansia de baile - Os Garotos de Ouro
TTITLE13=Cambichos - Os Serranos
TTITLE14=Domingueira - Os Monarcas
TTITLE15=Levanta Gaúcho
TTITLE16=Bugio da fronteira - Os Serranos
TTITLE17=Dançando e gritando - Os Farrapos
TTITLE18=Chamamento - Os Monarcas
TTITLE19=Churrasqueando lá em casa - Gaúcho da Fronteira
TTITLE20=Dia de festança - Os Monarcas
TTITLE21=Gavião - Os Serranos
TTITLE22=Minha gordinha - Os Farrapos
TTITLE23=Eu vim aqui prá dançar - Os Monarcas
EXTD=
EXTT0=
EXTT1=
EXTT2=
EXTT3=
EXTT4=
EXTT5=
EXTT6=
EXTT7=
EXTT8=
EXTT9=
EXTT10=
EXTT11=
EXTT12=
EXTT13=
EXTT14=
EXTT15=
EXTT16=
EXTT17=
EXTT18=
EXTT19=
EXTT20=
EXTT21=
EXTT22=
EXTT23=
PLAYORDER=
